<?xml version="1.0" standalone="no"?><svg xmlns:xlink="http://www.w3.org/1999/xlink" xmlns="http://www.w3.org/2000/svg" viewBox="0 0 1600 700.0058127143438" preserveAspectRatio="xMaxYMax slice"><g transform="scale(1.5500571583577143)"><rect x="0" y="0" width="1032.2285714285715" height="451.6" fill="#ffffff"/><path d="M 64.51 64.51 A 64.51 64.51 0 0 1  129.02 129.02 L 64.51 64.51 A 64.51 64.51 0 0 0 129.02 129.02" fill="#90df7c"/><path d="M 451.6 64.51 A 64.51 64.51 0 0 1  516.11 129.02 L 451.6 64.51 A 64.51 64.51 0 0 0 516.11 129.02" fill="#50cc30"/><path d="M 709.66 129.02 A 64.51 64.51 0 0 1  774.17 64.51 L 709.66 129.02 A 64.51 64.51 0 0 0 774.17 64.51" fill="#1aff48"/><rect x="258.0571428571429" y="129.02857142857144" width="64.51428571428572" height="64.51428571428572" fill="#ffffff"/><path d="M 258.06 161.29 A 32.26 32.26 0 0 1  290.32 129.03 L 258.06 161.29 A 32.26 32.26 0 0 0 290.32 129.03" fill="#95e082"/><path d="M 387.09 193.54000000000002 A 64.51 64.51 0 0 1  451.59999999999997 129.03 L 387.09 193.54000000000002 A 64.51 64.51 0 0 0 451.59999999999997 129.03" fill="#a5ffb7"/><path d="M 516.11 129.03 A 64.51 64.51 0 0 1  580.62 193.54000000000002 L 516.11 129.03 A 64.51 64.51 0 0 0 580.62 193.54000000000002" fill="#b2ffc1"/><path d="M 580.63 193.54000000000002 A 64.51 64.51 0 0 1  645.14 129.03 L 580.63 193.54000000000002 A 64.51 64.51 0 0 0 645.14 129.03" fill="#beffcb"/><path d="M 709.66 129.03 A 64.51 64.51 0 0 1  774.17 193.54000000000002 L 709.66 129.03 A 64.51 64.51 0 0 0 774.17 193.54000000000002" fill="#52cd32"/><path d="M 774.17 129.03 A 64.51 64.51 0 0 1  838.68 193.54000000000002 L 774.17 129.03 A 64.51 64.51 0 0 0 838.68 193.54000000000002" fill="#2aff55"/><path d="M 0 258.05 A 64.51 64.51 0 0 1  64.51 193.54 L 0 258.05 A 64.51 64.51 0 0 0 64.51 193.54" fill="#a1e490"/><path d="M 258.06 193.54 A 64.51 64.51 0 0 1  322.57 258.05 L 258.06 193.54 A 64.51 64.51 0 0 0 322.57 258.05" fill="#20ff4d"/><rect x="387.0857142857143" y="193.54285714285714" width="64.51428571428572" height="64.51428571428572" fill="#ffffff"/><path d="M 387.09 225.8 A 32.26 32.26 0 0 1  419.34999999999997 258.06 L 387.09 225.8 A 32.26 32.26 0 0 0 419.34999999999997 258.06" fill="#4aff6e"/><path d="M 419.34 258.06 A 32.26 32.26 0 0 1  451.59999999999997 225.8 L 419.34 258.06 A 32.26 32.26 0 0 0 451.59999999999997 225.8" fill="#cdffd7"/><path d="M 451.6 258.05 A 64.51 64.51 0 0 1  516.11 193.54 L 451.6 258.05 A 64.51 64.51 0 0 0 516.11 193.54" fill="#1bff48"/><rect x="838.6857142857143" y="193.54285714285714" width="64.51428571428572" height="64.51428571428572" fill="#ffffff"/><path d="M 838.69 193.54 A 32.26 32.26 0 0 1  870.95 225.79999999999998 L 838.69 193.54 A 32.26 32.26 0 0 0 870.95 225.79999999999998" fill="#6fd555"/><path d="M 903.2 258.05 A 64.51 64.51 0 0 1  967.71 193.54 L 903.2 258.05 A 64.51 64.51 0 0 0 967.71 193.54" fill="#27ff52"/><rect x="0" y="258.0571428571429" width="64.51428571428572" height="64.51428571428572" fill="#ffffff"/><path d="M 0 322.57 A 32.26 32.26 0 0 1  32.26 290.31 L 0 322.57 A 32.26 32.26 0 0 0 32.26 290.31" fill="#80ff99"/><path d="M 32.26 290.31 A 32.26 32.26 0 0 1  64.52 322.57 L 32.26 290.31 A 32.26 32.26 0 0 0 64.52 322.57" fill="#cbf0c1"/><path d="M 64.51 322.57 A 64.51 64.51 0 0 1  129.02 258.06 L 64.51 322.57 A 64.51 64.51 0 0 0 129.02 258.06" fill="#11ff40"/><rect x="193.54285714285714" y="258.0571428571429" width="64.51428571428572" height="64.51428571428572" fill="#ffffff"/><path d="M 225.8 258.06 A 32.26 32.26 0 0 1  258.06 290.32 L 225.8 258.06 A 32.26 32.26 0 0 0 258.06 290.32" fill="#b3e9a6"/><path d="M 193.54 322.57 A 32.26 32.26 0 0 1  225.79999999999998 290.31 L 193.54 322.57 A 32.26 32.26 0 0 0 225.79999999999998 290.31" fill="#79d861"/><path d="M 225.8 322.57 A 32.26 32.26 0 0 1  258.06 290.31 L 225.8 322.57 A 32.26 32.26 0 0 0 258.06 290.31" fill="#c0edb4"/><path d="M 258.06 322.57 A 64.51 64.51 0 0 1  322.57 258.06 L 258.06 322.57 A 64.51 64.51 0 0 0 322.57 258.06" fill="#edfff1"/><path d="M 387.09 322.57 A 64.51 64.51 0 0 1  451.59999999999997 258.06 L 387.09 322.57 A 64.51 64.51 0 0 0 451.59999999999997 258.06" fill="#78d860"/><rect x="516.1142857142858" y="258.0571428571429" width="64.51428571428572" height="64.51428571428572" fill="#ffffff"/><path d="M 516.11 258.06 A 32.26 32.26 0 0 1  548.37 290.32 L 516.11 258.06 A 32.26 32.26 0 0 0 548.37 290.32" fill="#e7ffec"/><path d="M 548.37 290.32 A 32.26 32.26 0 0 1  580.63 258.06 L 548.37 290.32 A 32.26 32.26 0 0 0 580.63 258.06" fill="#55ce37"/><path d="M 548.37 290.31 A 32.26 32.26 0 0 1  580.63 322.57 L 548.37 290.31 A 32.26 32.26 0 0 0 580.63 322.57" fill="#2aff54"/><path d="M 645.14 258.06 A 64.51 64.51 0 0 1  709.65 322.57 L 645.14 258.06 A 64.51 64.51 0 0 0 709.65 322.57" fill="#95e182"/><rect x="709.657142857143" y="258.0571428571429" width="64.51428571428572" height="64.51428571428572" fill="#ffffff"/><path d="M 709.66 258.06 A 32.26 32.26 0 0 1  741.92 290.32 L 709.66 258.06 A 32.26 32.26 0 0 0 741.92 290.32" fill="#20ff4d"/><rect x="774.1714285714286" y="258.0571428571429" width="64.51428571428572" height="64.51428571428572" fill="#ffffff"/><path d="M 774.17 258.06 A 32.26 32.26 0 0 1  806.43 290.32 L 774.17 258.06 A 32.26 32.26 0 0 0 806.43 290.32" fill="#66ff84"/><path d="M 806.43 290.31 A 32.26 32.26 0 0 1  838.6899999999999 322.57 L 806.43 290.31 A 32.26 32.26 0 0 0 838.6899999999999 322.57" fill="#46ff6b"/><rect x="838.6857142857143" y="258.0571428571429" width="64.51428571428572" height="64.51428571428572" fill="#ffffff"/><path d="M 870.94 290.32 A 32.26 32.26 0 0 1  903.2 258.06 L 870.94 290.32 A 32.26 32.26 0 0 0 903.2 258.06" fill="#6ed554"/><path d="M 838.69 290.31 A 32.26 32.26 0 0 1  870.95 322.57 L 838.69 290.31 A 32.26 32.26 0 0 0 870.95 322.57" fill="#b9ebac"/><path d="M 903.2 258.06 A 64.51 64.51 0 0 1  967.71 322.57 L 903.2 258.06 A 64.51 64.51 0 0 0 967.71 322.57" fill="#96e183"/><path d="M 967.71 322.57 A 64.51 64.51 0 0 1  1032.22 258.06 L 967.71 322.57 A 64.51 64.51 0 0 0 1032.22 258.06" fill="#edfff1"/><path d="M 0 387.08 A 64.51 64.51 0 0 1  64.51 322.57 L 0 387.08 A 64.51 64.51 0 0 0 64.51 322.57" fill="#7dd965"/><path d="M 64.51 322.57 A 64.51 64.51 0 0 1  129.02 387.08 L 64.51 322.57 A 64.51 64.51 0 0 0 129.02 387.08" fill="#c4eeb9"/><path d="M 129.03 387.08 A 64.51 64.51 0 0 1  193.54000000000002 322.57 L 129.03 387.08 A 64.51 64.51 0 0 0 193.54000000000002 322.57" fill="#14ff43"/><rect x="193.54285714285714" y="322.5714285714286" width="64.51428571428572" height="64.51428571428572" fill="#ffffff"/><path d="M 193.54 354.83 A 32.26 32.26 0 0 1  225.79999999999998 322.57 L 193.54 354.83 A 32.26 32.26 0 0 0 225.79999999999998 322.57" fill="#47ff6c"/><path d="M 225.8 322.57 A 32.26 32.26 0 0 1  258.06 354.83 L 225.8 322.57 A 32.26 32.26 0 0 0 258.06 354.83" fill="#3bff62"/><path d="M 225.8 354.83 A 32.26 32.26 0 0 1  258.06 387.09 L 225.8 354.83 A 32.26 32.26 0 0 0 258.06 387.09" fill="#d5ffde"/><rect x="258.0571428571429" y="322.5714285714286" width="64.51428571428572" height="64.51428571428572" fill="#ffffff"/><path d="M 258.06 322.57 A 32.26 32.26 0 0 1  290.32 354.83 L 258.06 322.57 A 32.26 32.26 0 0 0 290.32 354.83" fill="#daf4d4"/><path d="M 290.31 322.57 A 32.26 32.26 0 0 1  322.57 354.83 L 290.31 322.57 A 32.26 32.26 0 0 0 322.57 354.83" fill="#63ff82"/><path d="M 258.06 354.83 A 32.26 32.26 0 0 1  290.32 387.09 L 258.06 354.83 A 32.26 32.26 0 0 0 290.32 387.09" fill="#3bff62"/><path d="M 290.31 354.83 A 32.26 32.26 0 0 1  322.57 387.09 L 290.31 354.83 A 32.26 32.26 0 0 0 322.57 387.09" fill="#aee89f"/><rect x="322.5714285714286" y="322.5714285714286" width="64.51428571428572" height="64.51428571428572" fill="#ffffff"/><path d="M 322.57 322.57 A 32.26 32.26 0 0 1  354.83 354.83 L 322.57 322.57 A 32.26 32.26 0 0 0 354.83 354.83" fill="#8add75"/><path d="M 322.57 354.83 A 32.26 32.26 0 0 1  354.83 387.09 L 322.57 354.83 A 32.26 32.26 0 0 0 354.83 387.09" fill="#37ff5f"/><path d="M 354.83 387.09 A 32.26 32.26 0 0 1  387.09 354.83 L 354.83 387.09 A 32.26 32.26 0 0 0 387.09 354.83" fill="#a5e595"/><path d="M 387.09 387.08 A 64.51 64.51 0 0 1  451.59999999999997 322.57 L 387.09 387.08 A 64.51 64.51 0 0 0 451.59999999999997 322.57" fill="#3dff64"/><rect x="451.6" y="322.5714285714286" width="64.51428571428572" height="64.51428571428572" fill="#ffffff"/><path d="M 451.6 322.57 A 32.26 32.26 0 0 1  483.86 354.83 L 451.6 322.57 A 32.26 32.26 0 0 0 483.86 354.83" fill="#4dcc2d"/><path d="M 483.86 354.83 A 32.26 32.26 0 0 1  516.12 322.57 L 483.86 354.83 A 32.26 32.26 0 0 0 516.12 322.57" fill="#bcffc9"/><path d="M 451.6 354.83 A 32.26 32.26 0 0 1  483.86 387.09 L 451.6 354.83 A 32.26 32.26 0 0 0 483.86 387.09" fill="#1cff49"/><path d="M 483.86 354.83 A 32.26 32.26 0 0 1  516.12 387.09 L 483.86 354.83 A 32.26 32.26 0 0 0 516.12 387.09" fill="#73d75a"/><path d="M 516.11 322.57 A 64.51 64.51 0 0 1  580.62 387.08 L 516.11 322.57 A 64.51 64.51 0 0 0 580.62 387.08" fill="#e3ffe9"/><path d="M 580.63 387.08 A 64.51 64.51 0 0 1  645.14 322.57 L 580.63 387.08 A 64.51 64.51 0 0 0 645.14 322.57" fill="#e4f7df"/><rect x="645.1428571428572" y="322.5714285714286" width="64.51428571428572" height="64.51428571428572" fill="#ffffff"/><path d="M 645.14 322.57 A 32.26 32.26 0 0 1  677.4 354.83 L 645.14 322.57 A 32.26 32.26 0 0 0 677.4 354.83" fill="#6cd552"/><path d="M 677.4 322.57 A 32.26 32.26 0 0 1  709.66 354.83 L 677.4 322.57 A 32.26 32.26 0 0 0 709.66 354.83" fill="#9de38c"/><path d="M 677.4 354.83 A 32.26 32.26 0 0 1  709.66 387.09 L 677.4 354.83 A 32.26 32.26 0 0 0 709.66 387.09" fill="#abe79c"/><path d="M 709.66 387.08 A 64.51 64.51 0 0 1  774.17 322.57 L 709.66 387.08 A 64.51 64.51 0 0 0 774.17 322.57" fill="#3eff64"/><path d="M 774.17 322.57 A 64.51 64.51 0 0 1  838.68 387.08 L 774.17 322.57 A 64.51 64.51 0 0 0 838.68 387.08" fill="#8add75"/><rect x="838.6857142857143" y="322.5714285714286" width="64.51428571428572" height="64.51428571428572" fill="#ffffff"/><path d="M 838.69 322.57 A 32.26 32.26 0 0 1  870.95 354.83 L 838.69 322.57 A 32.26 32.26 0 0 0 870.95 354.83" fill="#49ca28"/><path d="M 870.94 322.57 A 32.26 32.26 0 0 1  903.2 354.83 L 870.94 322.57 A 32.26 32.26 0 0 0 903.2 354.83" fill="#fafef9"/><path d="M 838.69 354.83 A 32.26 32.26 0 0 1  870.95 387.09 L 838.69 354.83 A 32.26 32.26 0 0 0 870.95 387.09" fill="#85dc6f"/><path d="M 870.94 387.09 A 32.26 32.26 0 0 1  903.2 354.83 L 870.94 387.09 A 32.26 32.26 0 0 0 903.2 354.83" fill="#d2ffdb"/><rect x="903.2" y="322.5714285714286" width="64.51428571428572" height="64.51428571428572" fill="#ffffff"/><path d="M 935.46 354.83 A 32.26 32.26 0 0 1  967.72 322.57 L 935.46 354.83 A 32.26 32.26 0 0 0 967.72 322.57" fill="#32ff5b"/><path d="M 903.2 354.83 A 32.26 32.26 0 0 1  935.46 387.09 L 903.2 354.83 A 32.26 32.26 0 0 0 935.46 387.09" fill="#f1fff4"/><path d="M 935.46 354.83 A 32.26 32.26 0 0 1  967.72 387.09 L 935.46 354.83 A 32.26 32.26 0 0 0 967.72 387.09" fill="#1aff48"/><path d="M 967.71 387.08 A 64.51 64.51 0 0 1  1032.22 322.57 L 967.71 387.08 A 64.51 64.51 0 0 0 1032.22 322.57" fill="#ddffe4"/><rect x="0" y="387.0857142857143" width="64.51428571428572" height="64.51428571428572" fill="#ffffff"/><path d="M 0 387.09 A 32.26 32.26 0 0 1  32.26 419.34999999999997 L 0 387.09 A 32.26 32.26 0 0 0 32.26 419.34999999999997" fill="#a1e490"/><path d="M 32.26 387.09 A 32.26 32.26 0 0 1  64.52 419.34999999999997 L 32.26 387.09 A 32.26 32.26 0 0 0 64.52 419.34999999999997" fill="#c7efbd"/><path d="M 0 451.59999999999997 A 32.26 32.26 0 0 1  32.26 419.34 L 0 451.59999999999997 A 32.26 32.26 0 0 0 32.26 419.34" fill="#33ff5c"/><path d="M 32.26 419.34 A 32.26 32.26 0 0 1  64.52 451.59999999999997 L 32.26 419.34 A 32.26 32.26 0 0 0 64.52 451.59999999999997" fill="#ceffd8"/><rect x="64.51428571428572" y="387.0857142857143" width="64.51428571428572" height="64.51428571428572" fill="#ffffff"/><path d="M 64.51 387.09 A 32.26 32.26 0 0 1  96.77000000000001 419.34999999999997 L 64.51 387.09 A 32.26 32.26 0 0 0 96.77000000000001 419.34999999999997" fill="#d3f2cb"/><path d="M 96.77 387.09 A 32.26 32.26 0 0 1  129.03 419.34999999999997 L 96.77 387.09 A 32.26 32.26 0 0 0 129.03 419.34999999999997" fill="#72d659"/><path d="M 64.51 419.34 A 32.26 32.26 0 0 1  96.77000000000001 451.59999999999997 L 64.51 419.34 A 32.26 32.26 0 0 0 96.77000000000001 451.59999999999997" fill="#74d75b"/><path d="M 96.77 451.59999999999997 A 32.26 32.26 0 0 1  129.03 419.34 L 96.77 451.59999999999997 A 32.26 32.26 0 0 0 129.03 419.34" fill="#3cff63"/><rect x="129.02857142857144" y="387.0857142857143" width="64.51428571428572" height="64.51428571428572" fill="#ffffff"/><path d="M 129.03 419.34999999999997 A 32.26 32.26 0 0 1  161.29 387.09 L 129.03 419.34999999999997 A 32.26 32.26 0 0 0 161.29 387.09" fill="#3aff61"/><path d="M 161.29 387.09 A 32.26 32.26 0 0 1  193.54999999999998 419.34999999999997 L 161.29 387.09 A 32.26 32.26 0 0 0 193.54999999999998 419.34999999999997" fill="#49cb29"/><path d="M 129.03 451.59999999999997 A 32.26 32.26 0 0 1  161.29 419.34 L 129.03 451.59999999999997 A 32.26 32.26 0 0 0 161.29 419.34" fill="#5ad03d"/><path d="M 161.29 419.34 A 32.26 32.26 0 0 1  193.54999999999998 451.59999999999997 L 161.29 419.34 A 32.26 32.26 0 0 0 193.54999999999998 451.59999999999997" fill="#cff1c6"/><rect x="193.54285714285714" y="387.0857142857143" width="64.51428571428572" height="64.51428571428572" fill="#ffffff"/><path d="M 193.54 419.34999999999997 A 32.26 32.26 0 0 1  225.79999999999998 387.09 L 193.54 419.34999999999997 A 32.26 32.26 0 0 0 225.79999999999998 387.09" fill="#f0fff3"/><path d="M 225.8 419.34999999999997 A 32.26 32.26 0 0 1  258.06 387.09 L 225.8 419.34999999999997 A 32.26 32.26 0 0 0 258.06 387.09" fill="#26ff51"/><path d="M 193.54 419.34 A 32.26 32.26 0 0 1  225.79999999999998 451.59999999999997 L 193.54 419.34 A 32.26 32.26 0 0 0 225.79999999999998 451.59999999999997" fill="#f3fcf1"/><path d="M 225.8 419.34 A 32.26 32.26 0 0 1  258.06 451.59999999999997 L 225.8 419.34 A 32.26 32.26 0 0 0 258.06 451.59999999999997" fill="#6bd451"/><path d="M 258.06 451.59999999999997 A 64.51 64.51 0 0 1  322.57 387.09 L 258.06 451.59999999999997 A 64.51 64.51 0 0 0 322.57 387.09" fill="#f6fcf4"/><rect x="322.5714285714286" y="387.0857142857143" width="64.51428571428572" height="64.51428571428572" fill="#ffffff"/><path d="M 322.57 419.34999999999997 A 32.26 32.26 0 0 1  354.83 387.09 L 322.57 419.34999999999997 A 32.26 32.26 0 0 0 354.83 387.09" fill="#6ed554"/><path d="M 354.83 419.34999999999997 A 32.26 32.26 0 0 1  387.09 387.09 L 354.83 419.34999999999997 A 32.26 32.26 0 0 0 387.09 387.09" fill="#d2f2ca"/><path d="M 322.57 419.34 A 32.26 32.26 0 0 1  354.83 451.59999999999997 L 322.57 419.34 A 32.26 32.26 0 0 0 354.83 451.59999999999997" fill="#f0fff3"/><path d="M 354.83 451.59999999999997 A 32.26 32.26 0 0 1  387.09 419.34 L 354.83 451.59999999999997 A 32.26 32.26 0 0 0 387.09 419.34" fill="#51cd32"/><rect x="387.0857142857143" y="387.0857142857143" width="64.51428571428572" height="64.51428571428572" fill="#ffffff"/><path d="M 387.09 419.34999999999997 A 32.26 32.26 0 0 1  419.34999999999997 387.09 L 387.09 419.34999999999997 A 32.26 32.26 0 0 0 419.34999999999997 387.09" fill="#96ffab"/><path d="M 419.34 419.34999999999997 A 32.26 32.26 0 0 1  451.59999999999997 387.09 L 419.34 419.34999999999997 A 32.26 32.26 0 0 0 451.59999999999997 387.09" fill="#60d143"/><path d="M 387.09 419.34 A 32.26 32.26 0 0 1  419.34999999999997 451.59999999999997 L 387.09 419.34 A 32.26 32.26 0 0 0 419.34999999999997 451.59999999999997" fill="#58ff7a"/><path d="M 419.34 419.34 A 32.26 32.26 0 0 1  451.59999999999997 451.59999999999997 L 419.34 419.34 A 32.26 32.26 0 0 0 451.59999999999997 451.59999999999997" fill="#4acb2a"/><rect x="451.6" y="387.0857142857143" width="64.51428571428572" height="64.51428571428572" fill="#ffffff"/><path d="M 451.6 387.09 A 32.26 32.26 0 0 1  483.86 419.34999999999997 L 451.6 387.09 A 32.26 32.26 0 0 0 483.86 419.34999999999997" fill="#d8f4d1"/><path d="M 483.86 419.34999999999997 A 32.26 32.26 0 0 1  516.12 387.09 L 483.86 419.34999999999997 A 32.26 32.26 0 0 0 516.12 387.09" fill="#d3f2cc"/><path d="M 451.6 419.34 A 32.26 32.26 0 0 1  483.86 451.59999999999997 L 451.6 419.34 A 32.26 32.26 0 0 0 483.86 451.59999999999997" fill="#eaf9e6"/><path d="M 483.86 451.59999999999997 A 32.26 32.26 0 0 1  516.12 419.34 L 483.86 451.59999999999997 A 32.26 32.26 0 0 0 516.12 419.34" fill="#60ff80"/><path d="M 516.11 451.59999999999997 A 64.51 64.51 0 0 1  580.62 387.09 L 516.11 451.59999999999997 A 64.51 64.51 0 0 0 580.62 387.09" fill="#f3fcf1"/><rect x="580.6285714285715" y="387.0857142857143" width="64.51428571428572" height="64.51428571428572" fill="#ffffff"/><path d="M 580.63 387.09 A 32.26 32.26 0 0 1  612.89 419.34999999999997 L 580.63 387.09 A 32.26 32.26 0 0 0 612.89 419.34999999999997" fill="#4fcc2f"/><path d="M 612.89 419.34999999999997 A 32.26 32.26 0 0 1  645.15 387.09 L 612.89 419.34999999999997 A 32.26 32.26 0 0 0 645.15 387.09" fill="#dbf5d4"/><path d="M 580.63 419.34 A 32.26 32.26 0 0 1  612.89 451.59999999999997 L 580.63 419.34 A 32.26 32.26 0 0 0 612.89 451.59999999999997" fill="#b9ebad"/><path d="M 612.89 451.59999999999997 A 32.26 32.26 0 0 1  645.15 419.34 L 612.89 451.59999999999997 A 32.26 32.26 0 0 0 645.15 419.34" fill="#68ff86"/><rect x="645.1428571428572" y="387.0857142857143" width="64.51428571428572" height="64.51428571428572" fill="#ffffff"/><path d="M 645.14 387.09 A 32.26 32.26 0 0 1  677.4 419.34999999999997 L 645.14 387.09 A 32.26 32.26 0 0 0 677.4 419.34999999999997" fill="#92e07f"/><path d="M 677.4 419.34999999999997 A 32.26 32.26 0 0 1  709.66 387.09 L 677.4 419.34999999999997 A 32.26 32.26 0 0 0 709.66 387.09" fill="#8bde76"/><path d="M 645.14 451.59999999999997 A 32.26 32.26 0 0 1  677.4 419.34 L 645.14 451.59999999999997 A 32.26 32.26 0 0 0 677.4 419.34" fill="#a8e698"/><path d="M 677.4 451.59999999999997 A 32.26 32.26 0 0 1  709.66 419.34 L 677.4 451.59999999999997 A 32.26 32.26 0 0 0 709.66 419.34" fill="#abffbc"/><rect x="709.657142857143" y="387.0857142857143" width="64.51428571428572" height="64.51428571428572" fill="#ffffff"/><path d="M 709.66 387.09 A 32.26 32.26 0 0 1  741.92 419.34999999999997 L 709.66 387.09 A 32.26 32.26 0 0 0 741.92 419.34999999999997" fill="#8edf7a"/><path d="M 741.91 419.34999999999997 A 32.26 32.26 0 0 1  774.17 387.09 L 741.91 419.34999999999997 A 32.26 32.26 0 0 0 774.17 387.09" fill="#a4ffb6"/><path d="M 709.66 419.34 A 32.26 32.26 0 0 1  741.92 451.59999999999997 L 709.66 419.34 A 32.26 32.26 0 0 0 741.92 451.59999999999997" fill="#e7ffec"/><path d="M 741.91 451.59999999999997 A 32.26 32.26 0 0 1  774.17 419.34 L 741.91 451.59999999999997 A 32.26 32.26 0 0 0 774.17 419.34" fill="#5cd03f"/><rect x="774.1714285714286" y="387.0857142857143" width="64.51428571428572" height="64.51428571428572" fill="#ffffff"/><path d="M 774.17 387.09 A 32.26 32.26 0 0 1  806.43 419.34999999999997 L 774.17 387.09 A 32.26 32.26 0 0 0 806.43 419.34999999999997" fill="#e8f8e4"/><path d="M 806.43 419.34999999999997 A 32.26 32.26 0 0 1  838.6899999999999 387.09 L 806.43 419.34999999999997 A 32.26 32.26 0 0 0 838.6899999999999 387.09" fill="#84ff9c"/><path d="M 774.17 451.59999999999997 A 32.26 32.26 0 0 1  806.43 419.34 L 774.17 451.59999999999997 A 32.26 32.26 0 0 0 806.43 419.34" fill="#d4f3cc"/><path d="M 806.43 419.34 A 32.26 32.26 0 0 1  838.6899999999999 451.59999999999997 L 806.43 419.34 A 32.26 32.26 0 0 0 838.6899999999999 451.59999999999997" fill="#60ff80"/><path d="M 838.69 387.09 A 64.51 64.51 0 0 1  903.2 451.59999999999997 L 838.69 387.09 A 64.51 64.51 0 0 0 903.2 451.59999999999997" fill="#e9f9e5"/><path d="M 903.2 387.09 A 64.51 64.51 0 0 1  967.71 451.59999999999997 L 903.2 387.09 A 64.51 64.51 0 0 0 967.71 451.59999999999997" fill="#9fffb2"/><rect x="967.7142857142858" y="387.0857142857143" width="64.51428571428572" height="64.51428571428572" fill="#ffffff"/><path d="M 967.71 419.34999999999997 A 32.26 32.26 0 0 1  999.97 387.09 L 967.71 419.34999999999997 A 32.26 32.26 0 0 0 999.97 387.09" fill="#42ff68"/><path d="M 999.97 419.34999999999997 A 32.26 32.26 0 0 1  1032.23 387.09 L 999.97 419.34999999999997 A 32.26 32.26 0 0 0 1032.23 387.09" fill="#a8e699"/><path d="M 967.71 451.59999999999997 A 32.26 32.26 0 0 1  999.97 419.34 L 967.71 451.59999999999997 A 32.26 32.26 0 0 0 999.97 419.34" fill="#2fff58"/><path d="M 999.97 451.59999999999997 A 32.26 32.26 0 0 1  1032.23 419.34 L 999.97 451.59999999999997 A 32.26 32.26 0 0 0 1032.23 419.34" fill="#b9ebac"/></g></svg>